<?xml version="1.0" encoding="UTF-8" standalone="no"?>
<!-- Created with Inkscape (http://www.inkscape.org/) -->

<svg
   width="20.930578mm"
   height="33.368126mm"
   viewBox="0 0 20.930578 33.368126"
   version="1.1"
   id="svg1"
   xmlns:inkscape="http://www.inkscape.org/namespaces/inkscape"
   xmlns:sodipodi="http://sodipodi.sourceforge.net/DTD/sodipodi-0.dtd"
   xmlns="http://www.w3.org/2000/svg"
   xmlns:svg="http://www.w3.org/2000/svg">
  <sodipodi:namedview
     id="namedview1"
     pagecolor="#ffffff"
     bordercolor="#666666"
     borderopacity="1.0"
     inkscape:showpageshadow="2"
     inkscape:pageopacity="0.0"
     inkscape:pagecheckerboard="0"
     inkscape:deskcolor="#d1d1d1"
     inkscape:document-units="mm"
     inkscape:zoom="4.0943603"
     inkscape:cx="472.96766"
     inkscape:cy="419.23521"
     inkscape:window-width="3440"
     inkscape:window-height="1369"
     inkscape:window-x="-8"
     inkscape:window-y="-8"
     inkscape:window-maximized="1"
     inkscape:current-layer="layer1" />
  <defs
     id="defs1" />
  <g
     inkscape:label="Layer 1"
     inkscape:groupmode="layer"
     id="layer1"
     transform="translate(-83.119364,-80.460027)">
    <path
       id="rect1"
       style="fill:#ababab;fill-opacity:1;stroke:#000000;stroke-width:0.465;stroke-linecap:round;stroke-linejoin:round;stroke-opacity:1"
       d="m 94.175647,81.792424 v 15.901871 h -9.641272 v 6.260085 c 0,5.34138 4.299895,9.64127 9.641272,9.64127 5.341377,0 9.641793,-4.29989 9.641793,-9.64127 V 91.434212 c 0,-5.341377 -4.300416,-9.641788 -9.641793,-9.641788 z"
       inkscape:export-filename="mouse_hint.svg"
       inkscape:export-xdpi="300"
       inkscape:export-ydpi="300" />
    <path
       id="rect1-0"
       style="fill:#24ab16;fill-opacity:1;stroke:#000000;stroke-width:0.465;stroke-linecap:round;stroke-linejoin:round;stroke-opacity:1"
       d="m 92.993132,80.69253 c -5.34137,0 -9.64127,4.299895 -9.64127,9.641272 v 6.260083 h 9.64127 z m 7.142718,3.151746 c 0.31082,0.34212 0.59739,0.706816 0.85679,1.091406 -0.25938,-0.384576 -0.54598,-0.749301 -0.85679,-1.091406 z m 0.85679,24.407814 c -0.25934,0.38444 -0.54606,0.7489 -0.85679,1.09089 0.31071,-0.34202 0.59748,-0.70642 0.85679,-1.09089 z m -2.601388,2.60088 c -0.25627,0.17283 -0.52164,0.33412 -0.79478,0.48214 0.27327,-0.14809 0.5384,-0.30922 0.79478,-0.48214 z m -1.21078,0.69453 c -0.42168,0.20259 -0.86071,0.3753 -1.31413,0.51573 0.45341,-0.14044 0.89246,-0.31314 1.31413,-0.51573 z m -7.9468,0.19275 c 0.28857,0.12165 0.58398,0.22935 0.88625,0.32298 -0.30205,-0.0936 -0.59788,-0.20144 -0.88625,-0.32298 z m 6.1743,0.45269 c -0.30853,0.079 -0.62273,0.14312 -0.94258,0.19172 0.31968,-0.0486 0.63421,-0.11277 0.94258,-0.19172 z m -4.72271,0.0248 c 0.24682,0.0602 0.4974,0.11101 0.75138,0.15193 -0.25398,-0.0409 -0.50456,-0.0917 -0.75138,-0.15193 z" />
  </g>
</svg>
