<?xml version="1.0" encoding="UTF-8" standalone="no"?>
<!-- Created with Inkscape (http://www.inkscape.org/) -->

<svg
   width="70.620979mm"
   height="70.620979mm"
   viewBox="0 0 70.620979 70.620979"
   version="1.1"
   id="svg1"
   sodipodi:docname="splash-screen-icon.svg"
   inkscape:export-filename="splash-screen-icon.png"
   inkscape:export-xdpi="778.51709"
   inkscape:export-ydpi="778.51709"
   xmlns:inkscape="http://www.inkscape.org/namespaces/inkscape"
   xmlns:sodipodi="http://sodipodi.sourceforge.net/DTD/sodipodi-0.dtd"
   xmlns="http://www.w3.org/2000/svg"
   xmlns:svg="http://www.w3.org/2000/svg">
  <sodipodi:namedview
     id="namedview1"
     pagecolor="#ffffff"
     bordercolor="#666666"
     borderopacity="1.0"
     inkscape:showpageshadow="2"
     inkscape:pageopacity="0.0"
     inkscape:pagecheckerboard="0"
     inkscape:deskcolor="#d1d1d1"
     inkscape:document-units="mm" />
  <defs
     id="defs1" />
  <g
     inkscape:label="Layer 1"
     inkscape:groupmode="layer"
     id="layer1"
     transform="translate(-77.127091,-112.7952)">
    <rect
       style="fill:#000000;stroke-width:0.579658;stroke-linecap:round;stroke-linejoin:round"
       id="rect1"
       width="70.620979"
       height="70.620979"
       x="77.12709"
       y="112.7952"
       rx="10"
       ry="10"
       inkscape:export-filename="small-icon.svg"
       inkscape:export-xdpi="115.09328"
       inkscape:export-ydpi="115.09328" />
    <path
       d="m 83.137044,143.33854 c -0.09991,0 -0.192925,0.019 -0.279052,0.0568 -0.08613,0.0345 -0.16192,0.0844 -0.227377,0.14986 -0.06201,0.0655 -0.111966,0.14125 -0.149861,0.22738 -0.03445,0.0827 -0.05168,0.17398 -0.05168,0.27388 0,0.0965 0.01723,0.18776 0.05168,0.27389 0.03789,0.0861 0.08785,0.16192 0.149861,0.22738 0.06546,0.0654 0.14125,0.11713 0.227377,0.15503 0.08613,0.0344 0.179145,0.0517 0.279052,0.0517 0.09991,0 0.192926,-0.0172 0.279053,-0.0517 0.08613,-0.0379 0.160197,-0.0896 0.222209,-0.15503 0.06546,-0.0655 0.115411,-0.14125 0.149861,-0.22738 0.0379,-0.0861 0.05684,-0.17742 0.05684,-0.27389 0,-0.0999 -0.01895,-0.1912 -0.05684,-0.27388 -0.03445,-0.0861 -0.08441,-0.16192 -0.149861,-0.22738 -0.06201,-0.0654 -0.136082,-0.11541 -0.222209,-0.14986 -0.08613,-0.0379 -0.179145,-0.0568 -0.279053,-0.0568 z m 38.881346,0.062 v 0.73897 h 1.53479 v 5.8136 h -1.70532 v 0.74931 h 4.15995 v -0.74931 h -1.54512 v -6.55257 z m -10.02006,0.45475 -0.89917,0.23255 v 1.42627 h -1.45211 v 0.75447 h 1.45211 v 2.70785 c 0,0.60978 0.1602,1.06281 0.48059,1.35909 0.3204,0.29283 0.80616,0.43925 1.45728,0.43925 0.22393,0 0.44442,-0.0121 0.66146,-0.0362 0.21704,-0.0207 0.42719,-0.0568 0.63045,-0.10852 v -0.77514 c -0.2136,0.0551 -0.41858,0.0965 -0.61495,0.12402 -0.19637,0.0241 -0.37724,0.0362 -0.5426,0.0362 -0.38585,0 -0.67869,-0.0913 -0.8785,-0.27388 -0.19637,-0.18604 -0.29456,-0.46509 -0.29456,-0.83716 v -2.6355 h 2.33061 v -0.75447 h -2.33061 z m -22.577432,1.5658 c -0.151583,0 -0.298001,0.0155 -0.439249,0.0465 -0.141249,0.0276 -0.280776,0.0775 -0.418579,0.14986 -0.134359,0.0723 -0.272163,0.16881 -0.413412,0.28939 -0.141248,0.11713 -0.287666,0.26527 -0.439249,0.44441 l -0.03617,-0.83715 H 86.87325 v 5.18831 h 0.89917 v -3.44165 c 0.165364,-0.20671 0.313504,-0.37896 0.444418,-0.51677 0.134358,-0.1378 0.258382,-0.24632 0.37207,-0.32556 0.113688,-0.0827 0.222209,-0.13952 0.325561,-0.17053 0.106798,-0.0344 0.215319,-0.0517 0.325562,-0.0517 0.299722,0 0.525378,0.0982 0.676961,0.29456 0.151584,0.19292 0.227376,0.49265 0.227376,0.89917 v 3.31246 h 0.89917 v -3.38481 c 0,-0.63389 -0.137805,-1.1076 -0.413411,-1.4211 -0.272161,-0.31695 -0.675241,-0.47542 -1.209229,-0.47542 z m 5.586223,0 c -0.41341,0 -0.757922,0.0499 -1.033529,0.14986 -0.275606,0.0965 -0.494372,0.21876 -0.656291,0.3669 -0.161918,0.14814 -0.27733,0.30834 -0.346232,0.48059 -0.06546,0.17226 -0.09819,0.33073 -0.09819,0.47543 0,0.22048 0.04134,0.41169 0.124024,0.5736 0.08268,0.16192 0.196371,0.30317 0.341064,0.42375 0.144693,0.12058 0.315227,0.22566 0.511597,0.31523 0.199814,0.0861 0.416857,0.16364 0.651123,0.23254 0.313502,0.093 0.559828,0.1757 0.738973,0.24805 0.182589,0.0724 0.316949,0.14297 0.403076,0.21187 0.08613,0.0655 0.144694,0.13608 0.1757,0.21188 0.03445,0.0723 0.05168,0.15502 0.05168,0.24804 0,0.21704 -0.103354,0.38413 -0.310058,0.50126 -0.206705,0.11714 -0.525379,0.1757 -0.956014,0.1757 -0.296277,0 -0.594281,-0.0224 -0.894003,-0.0672 -0.299722,-0.0448 -0.60117,-0.11024 -0.904337,-0.19637 v 0.82683 c 0.282496,0.0689 0.570164,0.11885 0.862996,0.14986 0.296277,0.031 0.620119,0.0465 0.971517,0.0465 0.161919,0 0.327285,-0.0121 0.496094,-0.0362 0.168809,-0.0241 0.332452,-0.062 0.490926,-0.11368 0.161919,-0.0517 0.313504,-0.11714 0.454753,-0.19638 0.141248,-0.0792 0.265272,-0.17397 0.37207,-0.28422 0.106797,-0.11368 0.191203,-0.24288 0.253214,-0.38757 0.06201,-0.14469 0.09302,-0.30834 0.09302,-0.49093 0,-0.19292 -0.02928,-0.36518 -0.08785,-0.51676 -0.05512,-0.15158 -0.14814,-0.28767 -0.279053,-0.40824 -0.130913,-0.12058 -0.301446,-0.2291 -0.511596,-0.32556 -0.21015,-0.0999 -0.468535,-0.19465 -0.775147,-0.28423 -0.282497,-0.0827 -0.511597,-0.15847 -0.687296,-0.22737 -0.1757,-0.0724 -0.313505,-0.14297 -0.413412,-0.21187 -0.09646,-0.0724 -0.163642,-0.14642 -0.201538,-0.22221 -0.03445,-0.0758 -0.05168,-0.1602 -0.05168,-0.25322 0,-0.093 0.02067,-0.17914 0.06201,-0.25838 0.04134,-0.0827 0.108521,-0.15331 0.201538,-0.21187 0.09646,-0.062 0.220487,-0.11025 0.372071,-0.1447 0.155028,-0.0344 0.34451,-0.0517 0.56844,-0.0517 0.186035,0 0.4048,0.0172 0.656291,0.0517 0.254936,0.031 0.523656,0.081 0.806153,0.14986 v -0.80098 c -0.268717,-0.0551 -0.527101,-0.093 -0.775147,-0.11369 -0.248046,-0.0241 -0.473701,-0.0362 -0.676961,-0.0362 z m 5.637899,0 c -0.37207,0 -0.704524,0.0724 -0.997356,0.21704 -0.292832,0.14469 -0.54088,0.34106 -0.74414,0.58911 -0.199815,0.2446 -0.353123,0.53055 -0.45992,0.85783 -0.103353,0.32384 -0.15503,0.66835 -0.15503,1.03353 0,0.4203 0.04823,0.79754 0.144694,1.13171 0.09991,0.33073 0.251493,0.61151 0.454753,0.84233 0.206705,0.22737 0.470257,0.40135 0.790649,0.52193 0.320393,0.12058 0.7028,0.18087 1.14722,0.18087 0.33072,0 0.6494,-0.0224 0.95601,-0.0672 0.31006,-0.0413 0.58739,-0.0965 0.83199,-0.16537 v -0.73897 c -0.11024,0.031 -0.23082,0.0603 -0.36173,0.0879 -0.12747,0.0241 -0.26183,0.0465 -0.40308,0.0672 -0.14125,0.0207 -0.28767,0.0379 -0.43925,0.0517 -0.15158,0.0103 -0.30317,0.0155 -0.45475,0.0155 -0.55811,0 -0.9853,-0.14125 -1.281577,-0.42375 -0.296277,-0.28594 -0.444418,-0.69419 -0.444418,-1.22473 h 3.643185 c 0.007,-0.0758 0.0121,-0.15675 0.0155,-0.24288 0.003,-0.0861 0.005,-0.19292 0.005,-0.32039 0,-0.36863 -0.0499,-0.70108 -0.14986,-0.99736 -0.0965,-0.29972 -0.24115,-0.55294 -0.43408,-0.75964 -0.18948,-0.21015 -0.42375,-0.37207 -0.7028,-0.48576 -0.27905,-0.11369 -0.59945,-0.17053 -0.96118,-0.17053 z m 6.55257,0 c -0.30317,0 -0.60461,0.0827 -0.90434,0.24804 -0.29627,0.16537 -0.59772,0.43237 -0.90433,0.80099 l -0.0258,-0.95601 h -0.82166 v 5.18831 h 0.90951 v -3.33313 c 0.16536,-0.21015 0.32039,-0.3893 0.46509,-0.53744 0.14469,-0.14813 0.28077,-0.26871 0.40824,-0.36173 0.13091,-0.0965 0.25666,-0.16537 0.37724,-0.20671 0.12402,-0.0448 0.24632,-0.0672 0.3669,-0.0672 0.27561,0 0.48404,0.10336 0.62528,0.31006 0.1447,0.20326 0.21188,0.53227 0.20154,0.98702 h 0.90951 c 0.0207,-0.68557 -0.10852,-1.20234 -0.38758,-1.55029 -0.2756,-0.34795 -0.68213,-0.52193 -1.21956,-0.52193 z m 22.54126,0 c -0.38929,0 -0.73725,0.0672 -1.04386,0.20154 -0.30662,0.13091 -0.56672,0.31695 -0.78032,0.5581 -0.21359,0.23771 -0.37724,0.52366 -0.49092,0.85783 -0.11369,0.33073 -0.17054,0.69763 -0.17054,1.10071 0,0.43063 0.0534,0.81132 0.1602,1.14205 0.11024,0.33073 0.267,0.60806 0.47026,0.83199 0.2067,0.22393 0.45647,0.39446 0.74931,0.51159 0.29627,0.11369 0.63045,0.17054 1.00252,0.17054 0.38929,0 0.73725,-0.0655 1.04386,-0.19637 0.30661,-0.13436 0.56672,-0.3204 0.78032,-0.55811 0.21359,-0.24115 0.37723,-0.52882 0.49092,-0.863 0.11369,-0.33761 0.17053,-0.70796 0.17053,-1.11104 0,-0.42719 -0.0551,-0.80615 -0.16536,-1.13688 -0.1068,-0.33073 -0.26355,-0.60634 -0.47026,-0.82682 -0.20326,-0.22393 -0.45303,-0.39274 -0.7493,-0.50643 -0.29284,-0.11714 -0.62529,-0.1757 -0.99736,-0.1757 z m 5.69474,0 c -0.30316,0 -0.5805,0.0448 -0.83199,0.13436 -0.24804,0.0861 -0.46164,0.20843 -0.64078,0.3669 -0.1757,0.15847 -0.31351,0.34968 -0.41342,0.57361 -0.0965,0.22048 -0.14469,0.46509 -0.14469,0.7338 0,0.13092 0.009,0.24805 0.0258,0.3514 0.0207,0.0999 0.0482,0.19465 0.0827,0.28422 0.0379,0.0861 0.081,0.16709 0.12919,0.24288 0.0517,0.0758 0.11024,0.15331 0.1757,0.23255 -0.14469,0.16536 -0.27044,0.34106 -0.37724,0.5271 -0.10335,0.18603 -0.15503,0.39102 -0.15503,0.61495 0,0.0792 0.0103,0.16019 0.031,0.24287 0.0207,0.0827 0.0517,0.16192 0.093,0.23772 0.0413,0.0723 0.0947,0.13952 0.16019,0.20153 0.0655,0.062 0.14298,0.11369 0.23255,0.15503 -0.2446,0.1757 -0.42547,0.35829 -0.5426,0.54777 -0.11714,0.18948 -0.1757,0.40997 -0.1757,0.66146 0,0.19637 0.0431,0.37552 0.12919,0.53744 0.0861,0.16536 0.22393,0.30661 0.41341,0.42374 0.18948,0.12058 0.43064,0.2136 0.72347,0.27906 0.29628,0.0689 0.65457,0.10335 1.07487,0.10335 0.44097,0 0.82166,-0.0465 1.14205,-0.13953 0.32039,-0.093 0.58394,-0.21876 0.79065,-0.37723 0.21015,-0.15503 0.36518,-0.3359 0.46508,-0.54261 0.0999,-0.2067 0.14987,-0.42547 0.14987,-0.65629 0,-0.21359 -0.0448,-0.40135 -0.13436,-0.56327 -0.0861,-0.16192 -0.20843,-0.298 -0.3669,-0.40825 -0.15503,-0.11024 -0.34279,-0.19464 -0.56328,-0.25321 -0.21704,-0.0586 -0.45475,-0.0913 -0.71313,-0.0982 l -1.36426,-0.0517 c -0.20671,-0.007 -0.37379,-0.0534 -0.50126,-0.13953 -0.12402,-0.0861 -0.18604,-0.19465 -0.18604,-0.32556 0,-0.1068 0.0224,-0.20326 0.0672,-0.28939 0.0448,-0.0861 0.0999,-0.17742 0.16537,-0.27388 0.11024,0.0689 0.2601,0.12747 0.44958,0.1757 0.18948,0.0448 0.39274,0.0672 0.60978,0.0672 0.29973,0 0.57361,-0.0431 0.82166,-0.12919 0.25149,-0.0896 0.46681,-0.2136 0.64595,-0.37207 0.17915,-0.15848 0.31695,-0.34796 0.41342,-0.56845 0.0999,-0.22393 0.14986,-0.47025 0.14986,-0.73897 0,-0.18603 -0.0276,-0.35829 -0.0827,-0.51676 -0.0517,-0.16192 -0.12575,-0.30317 -0.22221,-0.42375 h 0.83199 v -0.7338 h -1.88102 c -0.0896,-0.0276 -0.19293,-0.05 -0.31006,-0.0672 -0.11714,-0.0172 -0.23944,-0.0258 -0.36691,-0.0258 z m 5.94279,0 c -0.38929,0 -0.73725,0.0672 -1.04386,0.20154 -0.30661,0.13091 -0.56672,0.31695 -0.78031,0.5581 -0.2136,0.23771 -0.37724,0.52366 -0.49093,0.85783 -0.11369,0.33073 -0.17053,0.69763 -0.17053,1.10071 0,0.43063 0.0534,0.81132 0.16019,1.14205 0.11025,0.33073 0.267,0.60806 0.47026,0.83199 0.2067,0.22393 0.45648,0.39446 0.74931,0.51159 0.29627,0.11369 0.63045,0.17054 1.00252,0.17054 0.38929,0 0.73725,-0.0655 1.04386,-0.19637 0.30662,-0.13436 0.56672,-0.3204 0.78032,-0.55811 0.21359,-0.24115 0.37724,-0.52882 0.49092,-0.863 0.11369,-0.33761 0.17054,-0.70796 0.17054,-1.11104 0,-0.42719 -0.0551,-0.80615 -0.16537,-1.13688 -0.1068,-0.33073 -0.26355,-0.60634 -0.47025,-0.82682 -0.20326,-0.22393 -0.45303,-0.39274 -0.74931,-0.50643 -0.29283,-0.11714 -0.62529,-0.1757 -0.99736,-0.1757 z m -60.089352,0.093 v 0.74414 h 1.53479 v 3.69486 h -1.705322 v 0.74931 h 4.159953 v -0.74931 h -1.545126 v -4.439 z m 54.146562,0.58394 c 0.16537,0 0.31523,0.0276 0.44959,0.0827 0.1378,0.0517 0.25666,0.12575 0.35657,0.22221 0.0999,0.0965 0.17742,0.2136 0.23254,0.3514 0.0551,0.1378 0.0827,0.28939 0.0827,0.45475 0,0.1447 -0.0258,0.28422 -0.0775,0.41858 -0.0482,0.13436 -0.12058,0.25322 -0.21704,0.35657 -0.093,0.10335 -0.21015,0.18603 -0.3514,0.24805 -0.13781,0.0586 -0.29628,0.0879 -0.47543,0.0879 -0.16536,0 -0.31695,-0.0258 -0.45475,-0.0775 -0.13436,-0.0551 -0.25149,-0.13091 -0.3514,-0.22738 -0.0999,-0.0965 -0.17742,-0.21359 -0.23254,-0.3514 -0.0551,-0.1378 -0.0827,-0.28938 -0.0827,-0.45475 0,-0.14469 0.0241,-0.28422 0.0723,-0.41858 0.0517,-0.13435 0.12403,-0.25149 0.21704,-0.3514 0.0965,-0.10335 0.2136,-0.18603 0.3514,-0.24804 0.14125,-0.062 0.30145,-0.093 0.48059,-0.093 z m -34.82991,0.0413 c 0.22737,0 0.42719,0.0396 0.59944,0.11886 0.17226,0.0758 0.31523,0.18259 0.42892,0.32039 0.11713,0.1378 0.20326,0.30317 0.25838,0.49609 0.0551,0.18948 0.0775,0.39964 0.0672,0.63046 h -2.728515 c 0.01723,-0.23082 0.06201,-0.4427 0.134359,-0.63562 0.07235,-0.19293 0.167088,-0.35829 0.28422,-0.4961 0.117133,-0.1378 0.256661,-0.2446 0.418576,-0.32039 0.16192,-0.0758 0.34107,-0.11369 0.53744,-0.11369 z m 29.08349,0.0465 c 0.23082,0 0.43925,0.0413 0.62529,0.12402 0.18948,0.0792 0.34968,0.19982 0.48059,0.36174 0.13091,0.15847 0.23082,0.35829 0.29972,0.59944 0.0724,0.23771 0.10852,0.51677 0.10852,0.83716 0,0.25838 -0.0293,0.50471 -0.0879,0.73898 -0.0551,0.23082 -0.14469,0.43408 -0.26871,0.60978 -0.12058,0.1757 -0.27733,0.31695 -0.47026,0.42374 -0.18948,0.10336 -0.41858,0.15503 -0.6873,0.15503 -0.23426,0 -0.44441,-0.0396 -0.63045,-0.11885 -0.18603,-0.0827 -0.34451,-0.20326 -0.47542,-0.36174 -0.13091,-0.16192 -0.23255,-0.36346 -0.30489,-0.60461 -0.0689,-0.24116 -0.10335,-0.52194 -0.10335,-0.84233 0,-0.25493 0.0276,-0.49781 0.0827,-0.72864 0.0586,-0.23426 0.14814,-0.43925 0.26871,-0.61494 0.12403,-0.1757 0.28078,-0.31523 0.47026,-0.41858 0.19292,-0.1068 0.42375,-0.1602 0.69246,-0.1602 z m 11.63754,0 c 0.23082,0 0.43925,0.0413 0.62528,0.12402 0.18948,0.0792 0.34968,0.19982 0.48059,0.36174 0.13092,0.15847 0.23082,0.35829 0.29973,0.59944 0.0723,0.23771 0.10852,0.51677 0.10852,0.83716 0,0.25838 -0.0293,0.50471 -0.0879,0.73898 -0.0551,0.23082 -0.1447,0.43408 -0.26872,0.60978 -0.12058,0.1757 -0.27733,0.31695 -0.47026,0.42374 -0.18948,0.10336 -0.41858,0.15503 -0.68729,0.15503 -0.23427,0 -0.44442,-0.0396 -0.63046,-0.11885 -0.18603,-0.0827 -0.34451,-0.20326 -0.47542,-0.36174 -0.13091,-0.16192 -0.23254,-0.36346 -0.30489,-0.60461 -0.0689,-0.24116 -0.10335,-0.52194 -0.10335,-0.84233 0,-0.25493 0.0276,-0.49781 0.0827,-0.72864 0.0586,-0.23426 0.14814,-0.43925 0.26872,-0.61494 0.12402,-0.1757 0.28077,-0.31523 0.47025,-0.41858 0.19293,-0.1068 0.42375,-0.1602 0.69247,-0.1602 z m -6.71794,4.37699 1.35392,0.0465 c 0.35485,0.0172 0.6184,0.0758 0.79065,0.1757 0.17226,0.0999 0.25838,0.25494 0.25838,0.46509 0,0.11369 -0.0258,0.22393 -0.0775,0.33073 -0.0517,0.11024 -0.1378,0.2067 -0.25838,0.28939 -0.11713,0.0861 -0.27389,0.15503 -0.47026,0.2067 -0.19292,0.0517 -0.43236,0.0775 -0.7183,0.0775 -0.45475,0 -0.8096,-0.0568 -1.06453,-0.17054 -0.25494,-0.11024 -0.38241,-0.28766 -0.38241,-0.53226 0,-0.0758 0.009,-0.15159 0.0258,-0.22738 0.0172,-0.0724 0.0465,-0.14642 0.0879,-0.22221 0.0413,-0.0723 0.0982,-0.14469 0.17053,-0.21704 0.0758,-0.0724 0.17053,-0.14642 0.28422,-0.22221 z"
       style="font-size:10.5833px;line-height:1.25;fill:#ffffff;fill-opacity:1;stroke:none;stroke-width:0.264583"
       id="path1" />
  </g>
</svg>
